<svg width="24" height="24" xmlns="http://www.w3.org/2000/svg">
 <g>
  <title>Layer 1</title>
  <path fill="#729C62" stroke="#ffffff" id="svg_1" d="m5.5082,12.59149c-0.00106,-0.00576 -0.00203,-0.01156 -0.0029,-0.0174l-1.22011,-7.32069c-0.12055,-0.72328 -0.74634,-1.2534 -1.47959,-1.2534l-0.30575,0c-0.27614,0 -0.5,-0.22386 -0.5,-0.5c0,-0.27614 0.22386,-0.5 0.5,-0.5l0.30575,0c1.19181,0 2.21328,0.84029 2.44951,2l16.24474,0c0.33219,0 0.57202,0.31795 0.48076,0.63736l-2,7c-0.06133,0.21465 -0.25752,0.36264 -0.48076,0.36264l-12.90977,0l0.12443,0.7466c0.12055,0.72328 0.74634,1.2534 1.47959,1.2534l11.30575,0c0.27614,0 0.5,0.22386 0.5,0.5c0,0.27614 -0.22386,0.5 -0.5,0.5l-11.30575,0c-1.22209,0 -2.26507,-0.88353 -2.46598,-2.089l-0.21992,-1.31951l0,0l0,0zm-0.08479,-6.59149l1,6l12.69929,0l1.71428,-6l-15.41357,0zm2.57644,15c-1.10457,0 -2,-0.89543 -2,-2c0,-1.10457 0.89543,-2 2,-2c1.10457,0 2,0.89543 2,2c0,1.10457 -0.89543,2 -2,2zm0,-1c0.55228,0 1,-0.44772 1,-1c0,-0.55228 -0.44772,-1 -1,-1c-0.55228,0 -1,0.44772 -1,1c0,0.55228 0.44772,1 1,1zm9,1c-1.10457,0 -2,-0.89543 -2,-2c0,-1.10457 0.89543,-2 2,-2c1.10457,0 2,0.89543 2,2c0,1.10457 -0.89543,2 -2,2zm0,-1c0.55228,0 1,-0.44772 1,-1c0,-0.55228 -0.44772,-1 -1,-1c-0.55228,0 -1,0.44772 -1,1c0,0.55228 0.44772,1 1,1z" stroke-width="0.1"/>
 </g>

</svg>