<svg id="Слой_1" data-name="Слой 1" xmlns="http://www.w3.org/2000/svg" viewBox="0 0 36.11 31.22"><defs><style>.cls-1{fill:#fefefe;}.cls-2{fill:#fdfdfd;}.cls-3{fill:#221f1f;}</style></defs><path class="cls-1" d="M9.42,4.63H30.8a8.37,8.37,0,0,1,2.13.16A3.93,3.93,0,0,1,35.85,10c-1.16,3-2.51,6-3.83,9a3.07,3.07,0,0,1-2.41,1.78c-4.06.71-8.12,1.48-12.19,2.12a4.21,4.21,0,0,1-5-2.91c-2-5.15-4.08-10.28-6-15.46A2.36,2.36,0,0,0,3.64,2.8a17.53,17.53,0,0,1-2.4-.06A1.2,1.2,0,0,1,0,1.46,1.24,1.24,0,0,1,1.2.12,12.83,12.83,0,0,1,6.1.35,4.3,4.3,0,0,1,8.8,3.07C9,3.56,9.19,4.05,9.42,4.63Z"/><path class="cls-2" d="M32.28,28.47a2.84,2.84,0,0,1-5.67,0,2.84,2.84,0,0,1,2.8-2.75A2.81,2.81,0,0,1,32.28,28.47Z"/><path class="cls-2" d="M12.5,25.7a2.84,2.84,0,0,1,2.68,3,2.87,2.87,0,0,1-3,2.53,2.84,2.84,0,0,1-2.68-3A2.87,2.87,0,0,1,12.5,25.7Z"/><path class="cls-3" d="M10.65,7.37h9.53L31,7.35c2.17,0,2.69.74,1.88,2.63-1,2.4-2.09,4.78-3.07,7.2a1.58,1.58,0,0,1-1.33,1.1c-3.74.64-7.47,1.3-11.21,1.95a1.63,1.63,0,0,1-2.06-.94c-1.5-3.79-3-7.58-4.47-11.36A2.61,2.61,0,0,1,10.65,7.37Z"/></svg>