<svg width="64" height="64" xmlns="http://www.w3.org/2000/svg">

 <g>
  <title>Layer 1</title>
  <path id="svg_1" d="m57.57,42.03l-37.35,0l-7.34,-28.94l51.12,0l-6.43,28.94z" fill="#729C62"/>
  <path id="svg_2" d="m57.59,52.39l-35.4,0c-1.06,0 -1.99,-0.72 -2.25,-1.75l-10.66,-42.69l-6.97,0c-1.27,0 -2.31,-1.04 -2.31,-2.31c0,-1.28 1.04,-2.31 2.31,-2.31l8.77,0c1.06,0 1.99,0.72 2.25,1.75l10.67,42.68l33.59,0c1.28,0 2.31,1.04 2.31,2.31a2.307,2.307 0 0 1 -2.31,2.32z" fill="#729C62"/>
  <circle transform="rotate(-45.001 38.44 27.56)" id="svg_3" fill="#46673D" r="9.96" cy="27.56" cx="38.44"/>
  <path id="svg_4" d="m41.81,23.95l-4.82,4.82l-1.56,-1.56c-0.46,-0.46 -1.21,-0.46 -1.67,0c-0.46,0.46 -0.46,1.21 0,1.68l2.05,2.05c0.53,0.53 1.38,0.53 1.91,0l5.54,-5.54c0.4,-0.4 0.4,-1.04 0,-1.44c-0.41,-0.4 -1.05,-0.4 -1.45,-0.01z" fill="#fff"/>
  <path id="svg_5" d="m33.68,56.95a3.73,3.73 0 1 1 -7.46,0a3.73,3.73 0 0 1 7.46,0zm20.86,0a3.73,3.73 0 1 1 -7.46,0a3.73,3.73 0 0 1 7.46,0z" fill="#729C62"/>
 </g>
</svg>