<svg id="Слой_1" data-name="Слой 1" xmlns="http://www.w3.org/2000/svg" viewBox="0 0 240 41.94"><defs><style>.cls-1{fill:#221f1f;}.cls-2{fill:#05bc52;}.cls-3,.cls-4,.cls-6{fill:#fff;}.cls-3{fill-rule:evenodd;}.cls-5{fill:#1d1d1b;}.cls-6{font-size:38.58px;font-family:MyriadPro-Regular, Myriad Pro;}</style></defs><path class="cls-1" d="M41,20.09C41,31.14,31.74,40,20.42,40A20.25,20.25,0,0,1,0,19.91C.05,8.86,9.29,0,20.6,0A20.26,20.26,0,0,1,41,20.09Z"/><path class="cls-2" d="M10.53,30.87a9.79,9.79,0,0,1,9.66-3.79c2.26-.53,6.21,1.67,7.65,3C26.32,29.92,18.93,26.19,10.53,30.87ZM40.48,20.09A19.71,19.71,0,0,1,20.42,39.45,19.75,19.75,0,0,1,.54,19.91a18.64,18.64,0,0,1,7-14.66c4.16-3.29,7-.77,8,1.14A15.46,15.46,0,0,0,14.1,1.57a19.64,19.64,0,0,1,6.5-1A19.73,19.73,0,0,1,40.48,20.09Zm-21-11.2c2.89-1.92,7.89-3,10.53,1C28.37.75,21.44,6,19.45,8.89ZM9.13,19.18c1.83.33,3.82-1.94,4.43-5.11s-.37-6-2.2-6.35S7.55,9.66,6.94,12.83,7.3,18.83,9.13,19.18Zm-2.6,14a29.34,29.34,0,0,1,27-.68C31.64,29.6,25.24,20.65,18.79,20S6.53,33.13,6.53,33.13Zm.9-20.23C8,10,9.71,7.87,11.27,8.18s2.38,2.89,1.83,5.8-2.28,5-3.84,4.72S6.87,15.81,7.43,12.9Zm3.32,2.47c.7.15,1.47-.68,1.74-1.85s-.09-2.25-.79-2.38c-.47-.11-1,.24-1.33.83a.68.68,0,0,1-.45,1.28C9.78,14.29,10.12,15.22,10.75,15.37Z"/><path class="cls-3" d="M84.88,20.11c0-7.14,5.47-10.52,14.21-10.52s14.23,3.4,14.23,10.52-5.45,10.54-14.23,10.54S84.88,27.25,84.88,20.11Zm7.17,0c0,3.79,2.67,5.29,7,5.29s7.06-1.48,7.06-5.29-2.71-5.27-7.06-5.27S92.05,16.27,92.05,20.09Z"/><path class="cls-4" d="M158.06,22.09H146.29v3.07h14.26v5H139.7v-20h20.37v5.05H146.29v2.95h11.77Z"/><path class="cls-4" d="M162.25,15.22h8.32v14.9h6.84V15.22h8.32V10.08H162.25Z"/><path class="cls-3" d="M230.66,10.08h-8.91l-9.36,20h7.46l1.61-3.92h9.45l1.61,3.92H240Zm-7.54,12.1,3.09-7.49,3.06,7.49Z"/><path class="cls-3" d="M82.85,17.33c0-4.23-2.72-7.25-9.18-7.25h-14v20h6.76V24.45h4.35l4.85,5.67h8.43l-5.65-6.5A7.11,7.11,0,0,0,82.85,17.33ZM66.43,14.8h6.64c2.05,0,2.87,1.1,2.87,2.51A2.68,2.68,0,0,1,73,20H66.43Z"/><path class="cls-4" d="M194.91,17.4l8.3-7.32H212l-9.64,8.18,9.31,11.86h-8.43l-5.78-7.69-2.54,2.16v5.53h-6.75v-20h6.75Z"/><path class="cls-5" d="M23.7,20c1.83.33,3.82-1.94,4.43-5.12s-.36-6-2.19-6.35-3.82,1.94-4.43,5.12S21.87,19.62,23.7,20Z"/><path class="cls-2" d="M22,13.68c.56-2.91,2.28-5,3.84-4.72s2.37,2.89,1.83,5.8-2.29,5-3.84,4.72S21.44,16.59,22,13.68Z"/><path class="cls-5" d="M25.33,16.15c.7.16,1.46-.68,1.74-1.85s-.09-2.25-.79-2.38c-.48-.11-1,.24-1.34.84a.67.67,0,0,1,.32.88.69.69,0,0,1-.77.4C24.35,15.07,24.69,16,25.33,16.15Z"/><text class="cls-6" transform="translate(116.12 32.29)">S</text></svg>